<svg xmlns="http://www.w3.org/2000/svg" xmlns:xlink="http://www.w3.org/1999/xlink" version="1.1" width="256" height="256" viewBox="0 0 256 256" xml:space="preserve">

<defs>
</defs>
<g style="stroke: none; stroke-width: 0; stroke-dasharray: none; stroke-linecap: butt; stroke-linejoin: miter; stroke-miterlimit: 10; fill: none; fill-rule: nonzero; opacity: 1;" transform="translate(1.4065934065934016 1.4065934065934016) scale(2.81 2.81)" >
	<path d="M 74.595 90 h -59.19 C 7.81 90 1.653 83.843 1.653 76.248 V 21.485 c 0 -7.595 6.157 -13.752 13.752 -13.752 h 59.19 c 7.595 0 13.752 6.157 13.752 13.752 v 54.763 C 88.347 83.843 82.19 90 74.595 90 z" style="stroke: none; stroke-width: 1; stroke-dasharray: none; stroke-linecap: butt; stroke-linejoin: miter; stroke-miterlimit: 10; fill: rgb(201,223,255); fill-rule: nonzero; opacity: 1;" transform=" matrix(1 0 0 1 0 0) " stroke-linecap="round" />
	<path d="M 88.347 33.218 H 1.653 V 21.485 c 0 -7.595 6.157 -13.752 13.752 -13.752 h 59.19 c 7.595 0 13.752 6.157 13.752 13.752 V 33.218 z" style="stroke: none; stroke-width: 1; stroke-dasharray: none; stroke-linecap: butt; stroke-linejoin: miter; stroke-miterlimit: 10; fill: rgb(254,85,120); fill-rule: nonzero; opacity: 1;" transform=" matrix(1 0 0 1 0 0) " stroke-linecap="round" />
	<path d="M 19.678 14.406 L 19.678 14.406 c -2.097 0 -3.796 -1.7 -3.796 -3.796 V 3.796 C 15.881 1.7 17.581 0 19.678 0 h 0 c 2.097 0 3.796 1.7 3.796 3.796 v 6.814 C 23.474 12.707 21.775 14.406 19.678 14.406 z" style="stroke: none; stroke-width: 1; stroke-dasharray: none; stroke-linecap: butt; stroke-linejoin: miter; stroke-miterlimit: 10; fill: rgb(255,135,152); fill-rule: nonzero; opacity: 1;" transform=" matrix(1 0 0 1 0 0) " stroke-linecap="round" />
	<path d="M 70.322 14.406 L 70.322 14.406 c -2.097 0 -3.796 -1.7 -3.796 -3.796 V 3.796 C 66.526 1.7 68.225 0 70.322 0 h 0 c 2.097 0 3.796 1.7 3.796 3.796 v 6.814 C 74.119 12.707 72.419 14.406 70.322 14.406 z" style="stroke: none; stroke-width: 1; stroke-dasharray: none; stroke-linecap: butt; stroke-linejoin: miter; stroke-miterlimit: 10; fill: rgb(255,135,152); fill-rule: nonzero; opacity: 1;" transform=" matrix(1 0 0 1 0 0) " stroke-linecap="round" />
	<path d="M 22.564 15.744 c -1.617 -1.826 -4.679 -2.053 -7.05 0.279 c -2.371 -2.332 -5.433 -2.106 -7.05 -0.279 c -1.72 1.943 -0.997 5.569 1.267 8.467 c 1.148 1.469 3.983 3.861 5.783 4.866 c 1.801 -1.005 4.636 -3.397 5.783 -4.866 C 23.561 21.314 24.284 17.687 22.564 15.744 z" style="stroke: none; stroke-width: 1; stroke-dasharray: none; stroke-linecap: butt; stroke-linejoin: miter; stroke-miterlimit: 10; fill: rgb(254,85,120); fill-rule: nonzero; opacity: 1;" transform=" matrix(2.81 0 0 2.81 1.4065934065934016 1.4065934065934016) " stroke-linecap="round" />
	<path d="M 37.719 69.978 c -0.552 0 -1 -0.447 -1 -1 V 52.545 l -3.462 2.547 c -0.446 0.327 -1.07 0.232 -1.398 -0.213 c -0.327 -0.445 -0.232 -1.071 0.213 -1.398 l 5.055 -3.719 c 0.305 -0.224 0.708 -0.258 1.044 -0.087 c 0.337 0.171 0.549 0.516 0.549 0.893 v 18.41 C 38.719 69.53 38.271 69.978 37.719 69.978 z" style="stroke: none; stroke-width: 1; stroke-dasharray: none; stroke-linecap: butt; stroke-linejoin: miter; stroke-miterlimit: 10; fill: rgb(129,37,56); fill-rule: nonzero; opacity: 1;" transform=" matrix(1 0 0 1 0 0) " stroke-linecap="round" />
	<path d="M 53.429 69.978 c -0.553 0 -1 -0.447 -1 -1 v -4.723 h -7.917 c -0.373 0 -0.715 -0.208 -0.887 -0.539 c -0.172 -0.331 -0.146 -0.73 0.069 -1.036 l 8.917 -12.688 c 0.252 -0.357 0.703 -0.513 1.12 -0.378 c 0.416 0.131 0.698 0.517 0.698 0.953 v 11.688 h 2.907 c 0.553 0 1 0.447 1 1 s -0.447 1 -1 1 h -2.907 v 4.723 C 54.429 69.53 53.981 69.978 53.429 69.978 z M 46.437 62.255 h 5.992 v -8.525 L 46.437 62.255 z" style="stroke: none; stroke-width: 1; stroke-dasharray: none; stroke-linecap: butt; stroke-linejoin: miter; stroke-miterlimit: 10; fill: rgb(129,37,56); fill-rule: nonzero; opacity: 1;" transform=" matrix(1 0 0 1 0 0) " stroke-linecap="round" />
	<ellipse cx="33.3" cy="23.192" rx="4" ry="5.492" style="stroke: none; stroke-width: 1; stroke-dasharray: none; stroke-linecap: butt; stroke-linejoin: miter; stroke-miterlimit: 10; fill: rgb(255,135,152); fill-rule: nonzero; opacity: 1;" transform=" matrix(0.5 -0.866 0.866 0.5 -3.4313 40.4328) "/>
	<ellipse cx="56.702" cy="23.19" rx="5.492" ry="4" style="stroke: none; stroke-width: 1; stroke-dasharray: none; stroke-linecap: butt; stroke-linejoin: miter; stroke-miterlimit: 10; fill: rgb(255,135,152); fill-rule: nonzero; opacity: 1;" transform=" matrix(0.866 -0.5 0.5 0.866 -3.9977 31.4565) "/>
	<path d="M 45 29.492 c -1.983 0 -3.824 -0.99 -4.924 -2.647 c -0.306 -0.46 -0.18 -1.081 0.28 -1.386 c 0.461 -0.306 1.082 -0.18 1.386 0.28 c 0.729 1.098 1.947 1.753 3.258 1.753 s 2.529 -0.655 3.258 -1.753 c 0.305 -0.46 0.924 -0.587 1.386 -0.281 c 0.46 0.306 0.586 0.926 0.28 1.386 C 48.824 28.502 46.983 29.492 45 29.492 z" style="stroke: none; stroke-width: 1; stroke-dasharray: none; stroke-linecap: butt; stroke-linejoin: miter; stroke-miterlimit: 10; fill: rgb(129,37,56); fill-rule: nonzero; opacity: 1;" transform=" matrix(1 0 0 1 0 0) " stroke-linecap="round" />
	<path d="M 36.108 19.508 c -0.552 0 -1 -0.448 -1 -1 v -3.079 c 0 -0.552 0.448 -1 1 -1 s 1 0.448 1 1 v 3.079 C 37.108 19.061 36.66 19.508 36.108 19.508 z" style="stroke: none; stroke-width: 1; stroke-dasharray: none; stroke-linecap: butt; stroke-linejoin: miter; stroke-miterlimit: 10; fill: rgb(129,37,56); fill-rule: nonzero; opacity: 1;" transform=" matrix(1 0 0 1 0 0) " stroke-linecap="round" />
	<path d="M 53.892 19.508 c -0.553 0 -1 -0.448 -1 -1 v -3.079 c 0 -0.552 0.447 -1 1 -1 s 1 0.448 1 1 v 3.079 C 54.892 19.061 54.444 19.508 53.892 19.508 z" style="stroke: none; stroke-width: 1; stroke-dasharray: none; stroke-linecap: butt; stroke-linejoin: miter; stroke-miterlimit: 10; fill: rgb(129,37,56); fill-rule: nonzero; opacity: 1;" transform=" matrix(1 0 0 1 0 0) " stroke-linecap="round" />
</g>
</svg>